LWalking1_XZ.mot
version=1
datacolumns 20
datarows 25
range 2.850000 3.090000
inDegrees=yes
endheader
time	pelvis_tilt	pelvis_list	pelvis_rotation	hip_flexion_r	hip_adduction_r	hip_rotation_r	knee_angle_r	ankle_angle_r	hip_flexion_l	hip_adduction_l	hip_rotation_l	knee_angle_l	ankle_angle_l	pelvis_tx	pelvis_ty	pelvis_tz	lumbar_bending	lumbar_rotation	lumbar_extension
2.850000	8.871873	0.550598	180.916258	-11.129831	2.271590	-4.710622	-9.391340	2.452326	33.843925	2.132949	1.928908	-7.347131	-6.096905	-0.742865	0.944677	0.007546	5.987928	-2.710696	10.181150
2.860000	8.994188	0.121307	180.852851	-10.461081	1.602796	-4.606705	-11.886642	0.680110	33.766070	2.641640	1.685333	-8.612813	-6.724710	-0.758428	0.945016	0.008809	5.942935	-3.195692	10.471651
2.870000	9.140109	-0.355677	180.788598	-9.543595	0.841026	-4.480709	-14.700193	-1.361713	33.707421	3.167433	1.433286	-9.918171	-7.010494	-0.773893	0.945756	0.010114	5.905840	-3.740075	10.781439
2.880000	9.312011	-0.880851	180.725542	-8.378050	-0.024851	-4.325795	-17.810266	-3.603211	33.661103	3.718125	1.186513	-11.241951	-6.945618	-0.789181	0.946845	0.011452	5.888724	-4.338689	11.105408
2.890000	9.502806	-1.445584	180.663984	-6.987500	-0.990243	-4.158067	-21.168523	-5.959719	33.600490	4.294964	0.950495	-12.543460	-6.558918	-0.804239	0.948217	0.012819	5.899844	-4.972390	11.430975
2.900000	9.696596	-2.032679	180.602293	-5.413205	-2.034580	-4.008263	-24.706980	-8.337168	33.483480	4.891508	0.730280	-13.765265	-5.911036	-0.819031	0.949805	0.014206	5.941514	-5.605523	11.738767
2.910000	9.874330	-2.620489	180.537412	-3.703527	-3.125961	-3.903408	-28.350243	-10.629789	33.263797	5.495756	0.535881	-14.843316	-5.082604	-0.833540	0.951562	0.015595	6.012035	-6.188285	12.007018
2.920000	10.022481	-3.187208	180.464478	-1.899579	-4.226718	-3.850711	-32.026038	-12.720358	32.905557	6.091906	0.378581	-15.720145	-4.159987	-0.847762	0.953471	0.016958	6.074250	-6.662307	12.265442
2.930000	10.139072	-3.711839	180.376275	-0.025993	-5.295356	-3.833202	-35.668321	-14.491537	32.394117	6.659222	0.261645	-16.356617	-3.221490	-0.861709	0.955540	0.018263	6.024805	-6.940288	12.646810
2.940000	10.231424	-4.172861	180.265146	1.905517	-6.286263	-3.824113	-39.213246	-15.845977	31.736145	7.171501	0.177515	-16.738822	-2.327099	-0.875400	0.957799	0.019481	-0.000000	-0.000000	0.000000
2.950000	10.309268	-4.548244	180.126517	3.885310	-7.153042	-3.809262	-42.595243	-16.724393	30.951478	7.600454	0.112481	-16.877698	-1.515747	-0.888859	0.960274	0.020598	-0.000000	-0.000000	0.000000
2.960000	10.380617	-4.816813	179.961093	5.898915	-7.855052	-3.791330	-45.747392	-17.119724	30.065617	7.920208	0.047490	-16.804043	-0.805384	-0.902112	0.962975	0.021616	-0.000000	-0.000000	0.000000
2.970000	10.449157	-4.960426	179.774925	7.924009	-8.363527	-3.776721	-48.604451	-17.085379	29.103726	8.110965	-0.044237	-16.562905	-0.190707	-0.915189	0.965885	0.022556	-0.000000	-0.000000	0.000000
2.980000	10.510374	-4.968612	179.578910	9.927436	-8.667758	-3.767729	-51.107123	-16.726397	28.083134	8.164115	-0.192278	-16.206628	0.354287	-0.928123	0.968955	0.023444	-0.000000	-0.000000	0.000000
2.990000	10.550103	-4.843300	179.390037	11.865551	-8.779071	-3.766438	-53.206876	-16.172252	27.008601	8.087289	-0.416490	-15.785824	0.863054	-0.940939	0.972111	0.024305	-0.000000	-0.000000	0.000000
3.000000	10.549499	-4.598722	179.232288	13.692732	-8.727302	-3.778642	-54.870102	-15.543916	25.876190	7.903131	-0.717188	-15.341446	1.360885	-0.953652	0.975269	0.025144	-0.000000	-0.000000	0.000000
3.010000	10.495336	-4.257660	179.131596	15.377387	-8.551302	-3.810010	-56.081548	-14.926053	24.685015	7.641211	-1.076443	-14.900615	1.857621	-0.966248	0.978350	0.025944	-0.000000	-0.000000	0.000000
3.020000	10.390487	-3.848128	179.106807	16.917240	-8.290309	-3.861762	-56.847135	-14.348330	23.450031	7.329960	-1.469446	-14.476766	2.347347	-0.978689	0.981287	0.026674	-0.000000	-0.000000	0.000000
3.030000	10.257642	-3.400195	179.165249	18.342483	-7.979577	-3.934258	-57.193959	-13.779959	22.207056	6.993325	-1.877907	-14.073525	2.810258	-0.990917	0.984032	0.027299	-0.000000	-0.000000	0.000000
3.040000	10.130478	-2.941843	179.304368	19.700430	-7.649221	-4.034040	-57.164050	-13.146059	21.002621	6.650668	-2.295175	-13.689330	3.220591	-1.002878	0.986554	0.027796	-0.000000	-0.000000	0.000000
3.050000	10.035349	-2.495674	179.513752	21.028534	-7.323932	-4.175918	-56.802287	-12.367521	19.871367	6.316829	-2.718656	-13.318858	3.561499	-1.014530	0.988841	0.028156	-0.000000	-0.000000	0.000000
3.060000	9.977442	-2.078102	179.775419	22.334135	-7.022246	-4.377958	-56.143500	-11.407658	18.817802	6.001512	-3.138404	-12.951551	3.835753	-1.025868	0.990892	0.028382	-0.000000	-0.000000	0.000000
3.070000	9.941648	-1.699798	180.065471	23.593069	-6.755609	-4.651900	-55.204451	-10.298481	17.816547	5.708709	-3.533377	-12.571560	4.064717	-1.036924	0.992716	0.028486	-0.000000	-0.000000	0.000000
3.080000	9.904569	-1.366140	180.358493	24.763466	-6.528173	-4.992180	-53.983523	-9.125881	16.828552	5.437559	-3.878306	-12.161827	4.279623	-1.047773	0.994318	0.028481	-0.000000	-0.000000	0.000000
3.090000	9.847181	-1.078931	180.632987	25.803313	-6.338746	-5.371652	-52.467531	-7.980653	15.819881	5.186293	-4.155085	-11.709678	4.506858	-1.058508	0.995693	0.028388	-0.000000	-0.000000	0.000000
